<svg xmlns="http://www.w3.org/2000/svg" viewBox="0 0 400 360" role="img" aria-labelledby="t">
<title id="t">Чашка свежесваренного кофе</title>
<circle cx="200" cy="190" r="160" fill="#f3e3c3"/>
<path d="M170 60 q-20 30 0 55 q20 25 0 50" fill="none" stroke="#a4431c" stroke-width="7" stroke-linecap="round" opacity=".6"/>
<path d="M215 40 q-22 34 0 62 q22 28 0 58" fill="none" stroke="#a4431c" stroke-width="7" stroke-linecap="round" opacity=".45"/>
<ellipse cx="200" cy="300" rx="150" ry="22" fill="#fbf7f1" stroke="#2a1c14" stroke-width="5"/>
<path d="M100 170 h200 v40 q0 86 -100 86 q-100 0 -100 -86 z" fill="#fbf7f1" stroke="#2a1c14" stroke-width="5" stroke-linejoin="round"/>
<path d="M300 186 q50 0 50 36 q0 38 -60 40" fill="none" stroke="#2a1c14" stroke-width="10"/>
<ellipse cx="200" cy="172" rx="100" ry="16" fill="#5b3a26" stroke="#2a1c14" stroke-width="5"/>
<path d="M176 170 q24 -12 48 0 q-24 10 -48 0" fill="#d9a441" opacity=".8"/>
<path d="M120 220 q80 30 160 0" fill="none" stroke="#a4431c" stroke-width="6"/>
</svg>
